<svg width="18" height="16" viewBox="0 0 18 16" fill="none" xmlns="http://www.w3.org/2000/svg">
<path d="M8.03073 15.2806C8.10046 15.2109 8.15578 15.1282 8.19352 15.0371C8.23127 14.9461 8.25069 14.8485 8.25069 14.7499C8.25069 14.6514 8.23127 14.5538 8.19352 14.4627C8.15578 14.3717 8.10046 14.289 8.03073 14.2193L2.56041 8.74993L17.2501 8.74993C17.449 8.74993 17.6398 8.67091 17.7804 8.53026C17.9211 8.38961 18.0001 8.19884 18.0001 7.99993C18.0001 7.80102 17.9211 7.61025 17.7804 7.4696C17.6398 7.32895 17.449 7.24993 17.2501 7.24993L2.56041 7.24993L8.03073 1.78055C8.17146 1.63982 8.25052 1.44895 8.25052 1.24993C8.25052 1.05091 8.17146 0.860034 8.03073 0.719304C7.89 0.578573 7.69913 0.499512 7.5001 0.499512C7.30108 0.499512 7.11021 0.578573 6.96948 0.719304L0.219477 7.4693C0.149744 7.53896 0.0944252 7.62168 0.0566819 7.71272C0.0189387 7.80377 -0.000488281 7.90137 -0.000488281 7.99993C-0.000488281 8.09849 0.0189387 8.19609 0.0566819 8.28713C0.0944252 8.37818 0.149744 8.4609 0.219477 8.53056L6.96948 15.2806C7.03913 15.3503 7.12185 15.4056 7.2129 15.4434C7.30395 15.4811 7.40154 15.5005 7.5001 15.5005C7.59866 15.5005 7.69626 15.4811 7.78731 15.4434C7.87836 15.4056 7.96107 15.3503 8.03073 15.2806Z" fill="#252A2E"/>
</svg>
