<svg width="18" height="18" viewBox="0 0 18 18" fill="none" xmlns="http://www.w3.org/2000/svg">
<g clip-path="url(#clip0_236_3275)">
<path d="M5.49981 11.1881C5.34512 11.3329 5.18903 11.16 5.18903 11.16C5.18903 11.16 2.59028 8.40655 2.42153 8.2828C2.18387 8.10983 1.67481 7.83843 1.16575 8.36296C0.953406 8.58092 0.607468 9.06608 1.25012 9.84795C1.38934 10.0167 5.43794 14.2833 5.67419 14.5139C5.67419 14.5139 7.5445 16.3336 8.67653 17.0184C8.99012 17.2082 9.34309 17.4093 9.75512 17.55C10.1657 17.6906 10.6298 17.7876 11.1192 17.7876C11.6086 17.7932 12.1162 17.699 12.5957 17.5232C13.0753 17.3461 13.5225 17.0887 13.9289 16.792C14.0287 16.7161 14.13 16.6401 14.2242 16.5586L14.497 16.3336C14.6833 16.1761 14.8626 16.0105 15.0342 15.8372C15.3759 15.4968 15.6839 15.1326 15.9553 14.76C16.2253 14.3859 16.4545 13.9992 16.6373 13.6139C16.8201 13.2286 16.9481 12.8418 17.0254 12.4762C17.107 12.112 17.1295 11.7675 17.1168 11.4665C17.114 11.1656 17.0536 10.9083 17.0043 10.7029C16.9481 10.4976 16.8876 10.3444 16.8398 10.2431C16.7934 10.1419 16.7681 10.0884 16.7681 10.0884C16.7034 9.90701 16.6415 9.73405 16.5867 9.57795C16.3796 8.99185 16.1682 8.40731 15.9525 7.82436L15.9539 7.82858C15.2718 5.97656 14.5392 4.06828 14.5392 4.06828C14.4281 3.73219 14.0189 3.61547 13.7179 3.83203C12.8489 4.4564 12.5831 5.36765 12.8897 6.33937L13.6757 8.49374C13.7868 8.7342 13.4803 9.01264 13.275 8.8453C12.6295 8.31936 11.264 6.86952 11.264 6.86952C10.6537 6.28452 7.20981 2.75344 6.97919 2.53828C6.51512 2.10657 5.93012 1.88438 5.48434 2.21203C5.02872 2.54672 4.90216 3.06422 5.34231 3.62953C5.46184 3.78281 8.94231 7.46014 8.94231 7.46014C9.14481 7.67249 8.90575 7.97342 8.68216 7.76671C8.68216 7.76671 4.35231 3.24984 4.15684 3.03891C3.71387 2.55797 3.00231 2.4525 2.58044 2.84906C2.16841 3.23578 2.17825 3.87 2.62825 4.36781C2.77169 4.52531 5.82184 7.74561 7.04247 9.06467C7.12403 9.15327 7.18731 9.27139 7.06637 9.38248C7.06497 9.38389 6.94262 9.51608 6.78512 9.34733C6.45325 8.99295 3.13872 5.53921 2.9545 5.35218C2.53122 4.92187 1.96309 4.71796 1.50606 5.13703C1.08981 5.51812 1.02231 6.18327 1.50044 6.65296L5.51528 10.897C5.51528 10.897 5.64606 11.0517 5.49981 11.1881Z" fill="#FAC036"/>
<path d="M12.0178 7.64996L12.3567 8.01277C12.3567 8.01277 10.4175 9.88449 11.7394 12.7589C11.7394 12.7589 11.9109 13.1231 11.6859 13.1835C11.6859 13.1835 11.4891 13.2932 11.2641 12.7335C11.2641 12.7321 9.92953 10.0026 12.0178 7.64996Z" fill="#E48C15"/>
<path d="M8.89871 1.43437C8.89871 1.43437 9.71574 1.55812 10.4723 2.36812C11.2289 3.17952 11.579 4.22155 11.579 4.22155M10.89 0.492188C10.89 0.492188 11.5748 0.836718 12.1036 1.6875C12.6323 2.53828 12.7603 3.52265 12.7603 3.52265M5.02168 15.5714C5.02168 15.5714 4.19762 15.6262 3.28496 14.9962C2.3723 14.3662 1.80559 13.424 1.80559 13.424M4.43387 16.9537C4.43387 16.9537 3.66887 16.986 2.79137 16.5009C1.91387 16.0157 1.32324 15.2184 1.32324 15.2184" stroke="#444444" stroke-width="0.562499" stroke-miterlimit="10" stroke-linecap="round"/>
</g>
<defs>
<clipPath id="clip0_236_3275">
<rect width="18" height="18" fill="white"/>
</clipPath>
</defs>
</svg>
