<svg width="16" height="14" viewBox="0 0 16 14" fill="none" xmlns="http://www.w3.org/2000/svg">
<path opacity="0.5" fill-rule="evenodd" clip-rule="evenodd" d="M13.7654 8.56978L13.9034 7.29178C13.9761 6.60928 14.0249 6.15928 13.9866 5.87503C13.8273 5.87319 13.6702 5.83746 13.5258 5.77021C13.3813 5.70297 13.2528 5.60576 13.1489 5.48503C12.9036 5.63578 12.5841 5.95453 12.1034 6.43378C11.7321 6.80353 11.5469 6.98803 11.3399 7.01653C11.2252 7.0324 11.1083 7.01604 11.0024 6.96928C10.8119 6.88528 10.6844 6.65728 10.4301 6.20053L9.08762 3.79378C8.93087 3.51253 8.79962 3.27628 8.68112 3.08728C8.4702 3.19465 8.2368 3.25043 8.00012 3.25003C7.75487 3.25003 7.52387 3.19153 7.31912 3.08728C7.20062 3.27703 7.06937 3.51253 6.91187 3.79378L5.57012 6.20053C5.31512 6.65728 5.18762 6.88528 4.99712 6.96928C4.89118 7.01604 4.77433 7.0324 4.65962 7.01653C4.45337 6.98803 4.26812 6.80353 3.89687 6.43378C3.41612 5.95453 3.09662 5.63578 2.85212 5.48503C2.74807 5.60585 2.61947 5.70312 2.47489 5.77037C2.33031 5.83761 2.17307 5.87329 2.01362 5.87503C1.97537 6.15853 2.02412 6.60928 2.09687 7.29178L2.23487 8.56978L2.30162 9.20728C2.49062 11.0335 2.64662 12.5448 3.28412 13.1148C3.99362 13.75 5.05712 13.75 7.18412 13.75H8.81612C10.9431 13.75 12.0066 13.75 12.7161 13.1148C13.3536 12.5448 13.5096 11.0335 13.6986 9.20728C13.7204 8.99878 13.7414 8.78578 13.7654 8.56978Z" fill="#00B14F"/>
<path d="M14 5.875C14.2978 5.87321 14.5827 5.75344 14.7923 5.54193C15.0019 5.33042 15.1191 5.04443 15.1182 4.74665C15.1174 4.44886 14.9984 4.16358 14.7876 3.95333C14.5767 3.74308 14.291 3.62502 13.9932 3.62502C13.6955 3.62502 13.4098 3.74308 13.1989 3.95333C12.9881 4.16358 12.8691 4.44886 12.8683 4.74665C12.8674 5.04443 12.9846 5.33042 13.1942 5.54193C13.4038 5.75344 13.6887 5.87321 13.9865 5.875H14ZM8 0.25C7.60218 0.25 7.22064 0.408035 6.93934 0.68934C6.65804 0.970644 6.5 1.35218 6.5 1.75C6.5 2.14782 6.65804 2.52936 6.93934 2.81066C7.22064 3.09196 7.60218 3.25 8 3.25C8.39782 3.25 8.77936 3.09196 9.06066 2.81066C9.34196 2.52936 9.5 2.14782 9.5 1.75C9.5 1.35218 9.34196 0.970644 9.06066 0.68934C8.77936 0.408035 8.39782 0.25 8 0.25ZM0.875 4.75C0.875 5.04837 0.993526 5.33452 1.2045 5.5455C1.41548 5.75647 1.70163 5.875 2 5.875H2.0135C2.30971 5.87203 2.59274 5.75213 2.80093 5.5414C3.00913 5.33068 3.12561 5.04622 3.125 4.75C3.125 4.45163 3.00647 4.16548 2.7955 3.9545C2.58452 3.74353 2.29837 3.625 2 3.625C1.70163 3.625 1.41548 3.74353 1.2045 3.9545C0.993526 4.16548 0.875 4.45163 0.875 4.75ZM2.63675 11.6875C2.55925 11.3153 2.49769 10.94 2.45225 10.5625H13.5477C13.4952 10.9713 13.4367 11.35 13.3632 11.6875H2.63675Z" fill="#00B14F"/>
</svg>
