<svg width="18" height="16" viewBox="0 0 18 16" fill="none" xmlns="http://www.w3.org/2000/svg">
<path d="M9.96933 0.719446C9.8996 0.789101 9.84428 0.871819 9.80654 0.962868C9.7688 1.05392 9.74937 1.15151 9.74937 1.25007C9.74937 1.34863 9.7688 1.44623 9.80654 1.53728C9.84428 1.62833 9.8996 1.71104 9.96933 1.7807L15.4396 7.25007L0.74996 7.25007C0.551048 7.25007 0.360282 7.32909 0.219629 7.46974C0.078977 7.61039 -4.00543e-05 7.80116 -4.00543e-05 8.00007C-4.00543e-05 8.19898 0.078977 8.38975 0.219629 8.5304C0.360282 8.67105 0.551048 8.75007 0.74996 8.75007H15.4396L9.96933 14.2194C9.8286 14.3602 9.74954 14.551 9.74954 14.7501C9.74954 14.9491 9.8286 15.14 9.96933 15.2807C10.1101 15.4214 10.3009 15.5005 10.5 15.5005C10.699 15.5005 10.8899 15.4214 11.0306 15.2807L17.7806 8.5307C17.8503 8.46104 17.9056 8.37833 17.9434 8.28728C17.9811 8.19623 18.0005 8.09863 18.0005 8.00007C18.0005 7.90151 17.9811 7.80392 17.9434 7.71287C17.9056 7.62182 17.8503 7.5391 17.7806 7.46945L11.0306 0.719446C10.9609 0.649714 10.8782 0.594395 10.7872 0.556651C10.6961 0.518908 10.5985 0.499482 10.5 0.499482C10.4014 0.499482 10.3038 0.518908 10.2128 0.556651C10.1217 0.594395 10.039 0.649714 9.96933 0.719446Z" fill="#252A2E"/>
</svg>
