<svg width="18" height="18" viewBox="0 0 18 18" fill="none" xmlns="http://www.w3.org/2000/svg">
<path d="M17.125 16.2413L12.405 11.5213C13.5392 10.1596 14.1048 8.41303 13.9841 6.64495C13.8634 4.87687 13.0657 3.22338 11.757 2.02846C10.4482 0.833537 8.72918 0.189183 6.95744 0.22944C5.1857 0.269697 3.49769 0.991466 2.24455 2.2446C0.991421 3.49773 0.269651 5.18574 0.229394 6.95748C0.189137 8.72922 0.833491 10.4483 2.02841 11.757C3.22333 13.0658 4.87682 13.8635 6.64491 13.9842C8.41299 14.1049 10.1595 13.5393 11.5212 12.405L16.2412 17.125L17.125 16.2413ZM1.49997 7.12501C1.49997 6.01249 1.82987 4.92496 2.44795 3.99993C3.06603 3.0749 3.94454 2.35393 4.97237 1.92819C6.00021 1.50245 7.13121 1.39105 8.22235 1.60809C9.31349 1.82514 10.3158 2.36087 11.1024 3.14754C11.8891 3.93421 12.4248 4.93649 12.6419 6.02763C12.8589 7.11877 12.7475 8.24977 12.3218 9.27761C11.896 10.3054 11.1751 11.1839 10.25 11.802C9.32502 12.4201 8.23748 12.75 7.12497 12.75C5.63363 12.7484 4.20385 12.1552 3.14932 11.1007C2.09478 10.0461 1.50162 8.61635 1.49997 7.12501Z" fill="#616161"/>
</svg>
